<svg width="26" height="19" viewBox="0 0 26 19" fill="none" xmlns="http://www.w3.org/2000/svg">
<g opacity="0.2">
<path d="M16.5193 7.81128C20.8484 7.81128 25.2273 9.01828 25.2273 11.3259C25.2245 11.3718 25.2184 11.4177 25.2087 11.4626C25.2172 11.489 25.2233 11.5163 25.2273 11.5437V15.0574C25.2245 15.2972 25.1736 15.5347 25.0779 15.7546C25.08 15.756 25.0825 15.7572 25.0847 15.7585C23.6591 17.7006 20.8471 19.0075 16.8308 19.0076C13.5314 19.0076 10.6692 18.1252 8.75754 16.7341C8.16315 16.2635 7.81125 15.7032 7.81125 15.0574V11.5437C7.81516 11.5163 7.82134 11.489 7.8298 11.4626C7.82014 11.4177 7.814 11.3719 7.81125 11.3259C7.81125 9.01831 12.1901 7.8113 16.5193 7.81128ZM11.5437 16.6873C12.9742 17.0843 14.4498 17.2952 15.9343 17.3152C15.9125 17.2597 15.9 17.2009 15.8972 17.1414V14.8279C14.4287 14.8015 12.9681 14.6067 11.5437 14.2488V16.6873ZM21.4958 14.2488C20.0712 14.6067 18.61 14.8015 17.1413 14.8279V17.1414C17.1385 17.2009 17.126 17.2597 17.1042 17.3152C18.5889 17.2952 20.0651 17.0844 21.4958 16.6873V14.2488ZM9.05539 15.0574C9.05539 15.4181 9.49714 15.841 10.2995 16.2205V14.031C10.3039 13.9742 10.3145 13.9176 10.3308 13.863C9.88382 13.6962 9.456 13.4815 9.05539 13.2224V15.0574ZM23.9831 13.2224C23.5827 13.4814 23.1555 13.6963 22.7087 13.863C22.725 13.9176 22.7346 13.9742 22.739 14.031V16.2205C23.5414 15.841 23.9831 15.4181 23.9831 15.0574V13.2224Z" fill="white"/>
<path d="M8.70801 0C13.0372 0 17.416 1.207 17.416 3.51465C17.4133 3.56057 17.4071 3.60639 17.3975 3.65137C17.4059 3.67771 17.4121 3.70503 17.416 3.73242V7.24609C17.4133 7.48595 17.3624 7.72344 17.2666 7.94336C17.5252 8.10303 17.7373 8.26621 17.9121 8.42773C15.9412 10.1009 12.6941 11.1962 9.01953 11.1963C6.03181 11.1963 3.32533 10.4731 1.3584 9.30371C1.35977 9.30016 1.36091 9.29652 1.3623 9.29297L1.39941 9.2373C0.534824 8.7086 0 8.04226 0 7.24609V3.73242C0.00391766 3.70505 0.0100902 3.67769 0.0185547 3.65137C0.00888962 3.60638 0.00274611 3.56058 0 3.51465C0 1.20702 4.37886 1.47085e-05 8.70801 0ZM3.73242 8.87598C5.16293 9.27303 6.63859 9.48395 8.12305 9.50391C8.10124 9.44843 8.08872 9.38962 8.08594 9.33008V7.0166C6.61744 6.99018 5.15688 6.79541 3.73242 6.4375V8.87598ZM13.6846 6.4375C12.26 6.79547 10.7987 6.99019 9.33008 7.0166V9.33008C9.32729 9.38964 9.31479 9.44842 9.29297 9.50391C10.7776 9.48396 12.2539 9.27311 13.6846 8.87598V6.4375ZM1.24414 7.24609C1.24414 7.60686 1.68589 8.02976 2.48828 8.40918V6.21973C2.49262 6.16293 2.50322 6.10634 2.51953 6.05176C2.07257 5.88496 1.64475 5.67019 1.24414 5.41113V7.24609ZM16.1719 5.41113C15.7714 5.67008 15.3442 5.88499 14.8975 6.05176C14.9138 6.10633 14.9234 6.16293 14.9277 6.21973V8.40918C15.7301 8.02976 16.1719 7.60686 16.1719 7.24609V5.41113Z" fill="white"/>
</g>
</svg>
