<svg width="32" height="14" viewBox="0 0 32 14" fill="none" xmlns="http://www.w3.org/2000/svg">
<path d="M7.88715 8.59972L11.0371 12.6137C11.0851 12.6857 11.1091 12.7697 11.1091 12.8657C11.1091 12.9737 11.0671 13.0697 10.9831 13.1537C10.8991 13.2377 10.7971 13.2797 10.6771 13.2797H7.92315C7.76715 13.2797 7.64115 13.2377 7.54515 13.1537C7.46115 13.0697 7.39515 12.9977 7.34715 12.9377L5.85315 11.0477L4.37715 12.9377C4.32915 12.9977 4.25715 13.0697 4.16115 13.1537C4.07715 13.2377 3.95715 13.2797 3.80115 13.2797H1.04715C0.927148 13.2797 0.825148 13.2377 0.741148 13.1537C0.657148 13.0697 0.615148 12.9737 0.615148 12.8657C0.615148 12.7697 0.639148 12.6857 0.687148 12.6137L3.87315 8.52772L0.777148 4.58572C0.729148 4.51372 0.705148 4.42972 0.705148 4.33372C0.705148 4.22572 0.747148 4.12972 0.831148 4.04572C0.915148 3.96172 1.01715 3.91972 1.13715 3.91972H3.92715C4.08315 3.91972 4.20315 3.96172 4.28715 4.04572C4.38315 4.12972 4.45515 4.20172 4.50315 4.26172L5.88915 6.04372L7.27515 4.26172C7.32315 4.20172 7.38915 4.12972 7.47315 4.04572C7.56915 3.96172 7.69515 3.91972 7.85115 3.91972H10.6411C10.7611 3.91972 10.8631 3.96172 10.9471 4.04572C11.0311 4.12972 11.0731 4.22572 11.0731 4.33372C11.0731 4.42972 11.0491 4.51372 11.0011 4.58572L7.88715 8.59972ZM11.4369 4.72972C11.3529 4.62172 11.3229 4.50172 11.3469 4.36972C11.3709 4.23772 11.4369 4.12972 11.5449 4.04572L15.4149 1.07572C15.5109 1.00372 15.6249 0.919724 15.7569 0.823724C15.9009 0.727723 16.0629 0.679723 16.2429 0.679723H18.4389C18.5709 0.679723 18.6849 0.727723 18.7809 0.823724C18.8769 0.919724 18.9249 1.03372 18.9249 1.16572V12.7937C18.9249 12.9257 18.8769 13.0397 18.7809 13.1357C18.6849 13.2317 18.5709 13.2797 18.4389 13.2797H16.0809C15.9489 13.2797 15.8349 13.2317 15.7389 13.1357C15.6429 13.0397 15.5949 12.9257 15.5949 12.7937V4.92772L13.4529 6.54772C13.3449 6.63172 13.2249 6.66772 13.0929 6.65572C12.9609 6.63172 12.8529 6.56572 12.7689 6.45772L11.4369 4.72972ZM25.9437 0.499723C26.8437 0.499723 27.6177 0.631724 28.2657 0.895724C28.9137 1.15972 29.4477 1.51372 29.8677 1.95772C30.2997 2.40172 30.6177 2.92372 30.8217 3.52372C31.0377 4.11172 31.1637 4.72972 31.1997 5.37772C31.2237 5.89372 31.2357 6.43372 31.2357 6.99772C31.2357 7.56172 31.2237 8.08972 31.1997 8.58172C31.1637 9.22972 31.0377 9.85372 30.8217 10.4537C30.6177 11.0417 30.2997 11.5577 29.8677 12.0017C29.4477 12.4457 28.9137 12.7997 28.2657 13.0637C27.6177 13.3277 26.8437 13.4597 25.9437 13.4597C25.0437 13.4597 24.2697 13.3277 23.6217 13.0637C22.9737 12.7997 22.4337 12.4457 22.0017 12.0017C21.5817 11.5577 21.2637 11.0417 21.0477 10.4537C20.8437 9.85372 20.7237 9.22972 20.6877 8.58172C20.6637 8.08972 20.6517 7.56172 20.6517 6.99772C20.6517 6.43372 20.6637 5.89372 20.6877 5.37772C20.7237 4.72972 20.8437 4.11172 21.0477 3.52372C21.2637 2.92372 21.5817 2.40172 22.0017 1.95772C22.4337 1.51372 22.9737 1.15972 23.6217 0.895724C24.2697 0.631724 25.0437 0.499723 25.9437 0.499723ZM27.8697 8.49172C27.9177 7.47172 27.9177 6.46372 27.8697 5.46772C27.8457 5.16772 27.7977 4.89172 27.7257 4.63972C27.6657 4.38772 27.5637 4.17172 27.4197 3.99172C27.2757 3.79972 27.0837 3.64972 26.8437 3.54172C26.6037 3.43372 26.3037 3.37972 25.9437 3.37972C25.5837 3.37972 25.2837 3.43372 25.0437 3.54172C24.8037 3.64972 24.6117 3.79972 24.4677 3.99172C24.3237 4.17172 24.2157 4.38772 24.1437 4.63972C24.0717 4.89172 24.0297 5.16772 24.0177 5.46772C23.9577 6.46372 23.9577 7.47172 24.0177 8.49172C24.0297 8.79172 24.0657 9.06772 24.1257 9.31972C24.1977 9.57172 24.3057 9.79372 24.4497 9.98572C24.6057 10.1657 24.8037 10.3097 25.0437 10.4177C25.2837 10.5257 25.5837 10.5797 25.9437 10.5797C26.3037 10.5797 26.6037 10.5257 26.8437 10.4177C27.0837 10.3097 27.2757 10.1657 27.4197 9.98572C27.5757 9.79372 27.6837 9.57172 27.7437 9.31972C27.8157 9.06772 27.8577 8.79172 27.8697 8.49172Z" fill="#FE881C"/>
</svg>
